<?xml version="1.0" encoding="UTF-8" standalone="no"?>
<!-- Created with Inkscape (http://www.inkscape.org/) -->

<svg
   xmlns:dc="http://purl.org/dc/elements/1.1/"
   xmlns:cc="http://creativecommons.org/ns#"
   xmlns:rdf="http://www.w3.org/1999/02/22-rdf-syntax-ns#"
   xmlns:svg="http://www.w3.org/2000/svg"
   xmlns="http://www.w3.org/2000/svg"
   xmlns:xlink="http://www.w3.org/1999/xlink"
   xmlns:sodipodi="http://sodipodi.sourceforge.net/DTD/sodipodi-0.dtd"
   xmlns:inkscape="http://www.inkscape.org/namespaces/inkscape"
   id="svg2993"
   version="1.1"
   inkscape:version="0.48.0 r9654"
   width="64"
   height="64"
   sodipodi:docname="paste.svg"
   style="display:inline">
  <metadata
     id="metadata2999">
    <rdf:RDF>
      <cc:Work
         rdf:about="">
        <dc:format>image/svg+xml</dc:format>
        <dc:type
           rdf:resource="http://purl.org/dc/dcmitype/StillImage" />
        <dc:title></dc:title>
      </cc:Work>
    </rdf:RDF>
  </metadata>
  <defs
     id="defs2997">
    <linearGradient
       id="linearGradient3865">
      <stop
         style="stop-color:#ffffff;stop-opacity:1;"
         offset="0"
         id="stop3867" />
      <stop
         style="stop-color:#bcbed8;stop-opacity:0;"
         offset="1"
         id="stop3869" />
    </linearGradient>
    <linearGradient
       id="linearGradient3840">
      <stop
         style="stop-color:#cacaca;stop-opacity:1;"
         offset="0"
         id="stop3842" />
      <stop
         style="stop-color:#ffffff;stop-opacity:1;"
         offset="1"
         id="stop3844" />
    </linearGradient>
    <linearGradient
       id="linearGradient3821">
      <stop
         style="stop-color:#b5b5b5;stop-opacity:1;"
         offset="0"
         id="stop3823" />
      <stop
         style="stop-color:#ffffff;stop-opacity:1;"
         offset="1"
         id="stop3825" />
    </linearGradient>
    <linearGradient
       inkscape:collect="always"
       xlink:href="#linearGradient3821"
       id="linearGradient3827"
       x1="42.453529"
       y1="25.107346"
       x2="54.431126"
       y2="40.10984"
       gradientUnits="userSpaceOnUse" />
    <linearGradient
       inkscape:collect="always"
       xlink:href="#linearGradient3840"
       id="linearGradient3846"
       x1="26.25869"
       y1="29.67659"
       x2="54.057289"
       y2="29.67659"
       gradientUnits="userSpaceOnUse" />
    <linearGradient
       inkscape:collect="always"
       xlink:href="#linearGradient3865"
       id="linearGradient3871"
       x1="3.2072244"
       y1="34.142586"
       x2="18.408745"
       y2="34.142586"
       gradientUnits="userSpaceOnUse" />
    <linearGradient
       inkscape:collect="always"
       xlink:href="#linearGradient3865"
       id="linearGradient3879"
       x1="6.4366369"
       y1="30.224224"
       x2="33.408695"
       y2="30.224224"
       gradientUnits="userSpaceOnUse" />
  </defs>
  <sodipodi:namedview
     pagecolor="#ffffff"
     bordercolor="#666666"
     borderopacity="1"
     objecttolerance="10"
     gridtolerance="10"
     guidetolerance="10"
     inkscape:pageopacity="0"
     inkscape:pageshadow="2"
     inkscape:window-width="1280"
     inkscape:window-height="751"
     id="namedview2995"
     showgrid="false"
     inkscape:zoom="4.3833333"
     inkscape:cx="56.988605"
     inkscape:cy="3.2857607"
     inkscape:window-x="-4"
     inkscape:window-y="-4"
     inkscape:window-maximized="1"
     inkscape:current-layer="layer1" />
  <g
     inkscape:groupmode="layer"
     id="layer1"
     inkscape:label="レイヤー"
     style="display:inline">
    <path
       style="fill:#c6c7ce;fill-opacity:1;stroke:#000000;stroke-width:1px;stroke-linecap:butt;stroke-linejoin:miter;stroke-opacity:1"
       d="m 27.205323,35.08365 -9.296578,1.996198 c 0,0 0.114069,10.380228 0.342206,10.380228 0.228137,0 19.505703,-4.163498 19.505703,-4.163498 z"
       id="path3863"
       inkscape:connector-curvature="0"
       sodipodi:nodetypes="ccscc" />
    <path
       style="fill:#c5c6cf;fill-opacity:1;stroke:#000000;stroke-width:1px;stroke-linecap:butt;stroke-linejoin:miter;stroke-opacity:1"
       d="m 29.037084,15.362883 c 9.679028,-9.9210039 18.551472,-2.177781 20.729253,1.290537 l -14.67986,5.000832 z"
       id="path3854"
       inkscape:connector-curvature="0"
       sodipodi:nodetypes="cccc" />
    <path
       style="fill:#bdbdbd;fill-opacity:1;stroke:#000000;stroke-width:1px;stroke-linecap:butt;stroke-linejoin:miter;stroke-opacity:1;display:inline"
       d="m 30.488939,17.137372 c 1.290537,-1.69383 7.512873,-5.172781 11.614833,-4.51688 5.745546,0.918709 8.46915,4.758856 10.404956,7.33993 L 32.021452,19.073177 z"
       id="path3830"
       inkscape:connector-curvature="0"
       sodipodi:nodetypes="csccc" />
    <path
       style="fill:url(#linearGradient3846);fill-opacity:1;stroke:#000000;stroke-width:1px;stroke-linecap:butt;stroke-linejoin:miter;stroke-opacity:1;display:inline"
       d="m 53.557289,22.460837 c -2.476379,-2.616153 -2.575534,-2.392407 -7.017295,-5.484782 -5.080962,-3.53739 -14.353748,0.305062 -17.744885,5.484782 -3.171297,4.843931 -2.722085,13.822206 1.935806,17.260934 1.71599,1.266844 2.976434,2.492029 5.188606,4.025612"
       id="path3033-9"
       inkscape:connector-curvature="0"
       sodipodi:nodetypes="csssc" />
    <path
       style="fill:#bcbed8;fill-opacity:1;stroke:#000000;stroke-width:1px;stroke-linecap:butt;stroke-linejoin:miter;stroke-opacity:1"
       d="m 4.113587,35.85016 c 0,0 1.6075861,4.820688 3.0650256,6.855978 3.3004884,4.609077 8.0658564,8.46915 8.0658564,8.46915"
       id="path3856"
       inkscape:connector-curvature="0"
       sodipodi:nodetypes="csc" />
    <path
       style="fill:url(#linearGradient3871);fill-opacity:1;stroke:#000000;stroke-width:1px;stroke-linecap:butt;stroke-linejoin:miter;stroke-opacity:1"
       d="M 10.95057,41.813688 4.2205323,36.053232 4.8479088,33.030418 3.7072243,28.86692 l 5.7034221,-2.395437 8.2699616,6.102661 0.228137,5.247149 z"
       id="path3861"
       inkscape:connector-curvature="0" />
  </g>
  <g
     inkscape:groupmode="layer"
     id="layer5"
     inkscape:label="レイヤー#4"
     style="display:inline">
    <path
       style="fill:#d7d8bc;fill-opacity:1;stroke:#000000;stroke-width:1px;stroke-linecap:butt;stroke-linejoin:miter;stroke-opacity:1;display:inline"
       d="m 34.763843,27.139034 c -3.171297,4.843931 -3.020942,14.269037 1.935806,17.260934 5.11654,3.088347 13.463401,-1.506906 16.696323,-6.533344 2.927745,-4.551959 3.554517,-13.119997 -0.887244,-16.212372 -5.080962,-3.53739 -14.353748,0.305062 -17.744885,5.484782 z"
       id="path3033"
       inkscape:connector-curvature="0"
       sodipodi:nodetypes="sssss" />
  </g>
  <g
     inkscape:groupmode="layer"
     id="layer3"
     inkscape:label="レイヤー#2"
     style="display:inline" />
  <g
     inkscape:groupmode="layer"
     id="layer2"
     inkscape:label="レイヤー#1"
     style="display:inline">
    <path
       style="fill:url(#linearGradient3827);fill-opacity:1;stroke:#000000;stroke-width:1px;stroke-linecap:butt;stroke-linejoin:miter;stroke-opacity:1"
       d="m 37.414449,21.338403 c 3.61671,-3.174289 9.732015,-5.860808 14.486692,-4.220532 5.397738,1.86212 7.206784,7.142863 7.192044,11.963347 -0.01281,4.188472 -1.331886,7.378229 -3.199649,10.508136 -1.587353,2.660009 -5.835074,6.649877 -9.547356,7.72443 -7.700223,2.228899 -13.581987,3.820344 -22.391807,6.077851 -2.617459,0.670721 -5.65704,-0.389788 -7.870723,-1.939164 -2.85111,-1.995516 -4.943259,-5.993913 -4.73384,-9.46768 0.572401,-1.082472 2.054911,-2.112027 2.830113,-2.721777 0.641295,-0.504423 2.267125,-1.323756 3.842891,-1.498756 0.09094,1.364983 -0.03245,3.191941 0.798479,4.44867 0.72705,1.099623 2.361087,2.557025 3.65019,2.281368 8.183535,-1.749932 16.665032,-2.650189 24.296577,-6.102661 2.057964,-0.931012 3.226848,-2.401723 3.990022,-4.205015 0.521161,-1.231442 0.147054,-4.604307 -0.672947,-5.612282 -0.882379,-1.084655 -2.766522,-1.582766 -3.887416,-1.532513 -1.396679,0.06262 -2.69776,0.898966 -3.878327,1.596958 -0.407499,-1.058949 -0.839353,-2.095354 -1.825095,-4.334601 -0.927108,-0.683047 -3.079848,-2.965779 -3.079848,-2.965779 z"
       id="path3030"
       inkscape:connector-curvature="0"
       sodipodi:nodetypes="ssssssscscssssssccs" />
  </g>
  <g
     inkscape:groupmode="layer"
     id="layer6"
     inkscape:label="テープ">
    <path
       style="fill:url(#linearGradient3879);stroke:#000000;stroke-width:1px;stroke-linecap:round;stroke-linejoin:round;stroke-opacity:1;fill-opacity:1.0"
       d="m 13.066688,32.301183 -6.1300511,-4.597539 19.8488781,0.484475 6.12318,4.556686 z"
       id="path3859"
       inkscape:connector-curvature="0"
       sodipodi:nodetypes="ccccc" />
  </g>
</svg>
